<mxfile host="app.diagrams.net" modified="2023-04-09T12:34:55.066Z" agent="Mozilla/5.0 (Windows NT 10.0; Win64; x64) AppleWebKit/537.36 (KHTML, like Gecko) Chrome/112.0.0.0 Safari/537.36 Edg/112.0.1722.34" etag="agDcOJ501dym8TDzfa4R" version="21.1.5" type="github">
  <diagram name="第 1 页" id="us1c-_segRAYhk2GYxEh">
    <mxGraphModel dx="1256" dy="491" grid="1" gridSize="10" guides="1" tooltips="1" connect="1" arrows="1" fold="1" page="1" pageScale="1" pageWidth="827" pageHeight="1169" math="0" shadow="0">
      <root>
        <mxCell id="0" />
        <mxCell id="1" parent="0" />
        <mxCell id="pMmxNRYlZ2RB8qyUUOUR-3" value="登录注册系统" style="html=1;dropTarget=0;whiteSpace=wrap;" vertex="1" parent="1">
          <mxGeometry x="60" y="170" width="180" height="90" as="geometry" />
        </mxCell>
        <mxCell id="pMmxNRYlZ2RB8qyUUOUR-4" value="" style="shape=module;jettyWidth=8;jettyHeight=4;" vertex="1" parent="pMmxNRYlZ2RB8qyUUOUR-3">
          <mxGeometry x="1" width="20" height="20" relative="1" as="geometry">
            <mxPoint x="-27" y="7" as="offset" />
          </mxGeometry>
        </mxCell>
        <mxCell id="pMmxNRYlZ2RB8qyUUOUR-5" value="登录注册" style="html=1;rounded=0;" vertex="1" parent="1">
          <mxGeometry x="180" y="230" width="60" height="30" as="geometry" />
        </mxCell>
        <mxCell id="pMmxNRYlZ2RB8qyUUOUR-6" value="" style="endArrow=none;html=1;rounded=0;align=center;verticalAlign=top;endFill=0;labelBackgroundColor=none;endSize=2;" edge="1" source="pMmxNRYlZ2RB8qyUUOUR-5" target="pMmxNRYlZ2RB8qyUUOUR-7" parent="1">
          <mxGeometry relative="1" as="geometry" />
        </mxCell>
        <mxCell id="pMmxNRYlZ2RB8qyUUOUR-7" value="" style="ellipse;html=1;fontSize=11;align=center;fillColor=none;points=[];aspect=fixed;resizable=0;verticalAlign=bottom;labelPosition=center;verticalLabelPosition=top;flipH=1;" vertex="1" parent="1">
          <mxGeometry x="270" y="241" width="8" height="8" as="geometry" />
        </mxCell>
        <mxCell id="pMmxNRYlZ2RB8qyUUOUR-9" value="用户订票系统" style="html=1;dropTarget=0;whiteSpace=wrap;" vertex="1" parent="1">
          <mxGeometry x="230" y="300" width="180" height="90" as="geometry" />
        </mxCell>
        <mxCell id="pMmxNRYlZ2RB8qyUUOUR-10" value="" style="shape=module;jettyWidth=8;jettyHeight=4;" vertex="1" parent="pMmxNRYlZ2RB8qyUUOUR-9">
          <mxGeometry x="1" width="20" height="20" relative="1" as="geometry">
            <mxPoint x="-27" y="7" as="offset" />
          </mxGeometry>
        </mxCell>
        <mxCell id="pMmxNRYlZ2RB8qyUUOUR-14" value="" style="rounded=0;orthogonalLoop=1;jettySize=auto;html=1;endArrow=halfCircle;endFill=0;endSize=6;strokeWidth=1;sketch=0;exitX=0.25;exitY=0;exitDx=0;exitDy=0;" edge="1" parent="1" source="pMmxNRYlZ2RB8qyUUOUR-9">
          <mxGeometry relative="1" as="geometry">
            <mxPoint x="290" y="280" as="sourcePoint" />
            <mxPoint x="275" y="250" as="targetPoint" />
          </mxGeometry>
        </mxCell>
        <mxCell id="pMmxNRYlZ2RB8qyUUOUR-15" value="管理员系统" style="html=1;dropTarget=0;whiteSpace=wrap;" vertex="1" parent="1">
          <mxGeometry x="230" y="70" width="180" height="90" as="geometry" />
        </mxCell>
        <mxCell id="pMmxNRYlZ2RB8qyUUOUR-16" value="" style="shape=module;jettyWidth=8;jettyHeight=4;" vertex="1" parent="pMmxNRYlZ2RB8qyUUOUR-15">
          <mxGeometry x="1" width="20" height="20" relative="1" as="geometry">
            <mxPoint x="-27" y="7" as="offset" />
          </mxGeometry>
        </mxCell>
        <mxCell id="pMmxNRYlZ2RB8qyUUOUR-17" value="" style="rounded=0;orthogonalLoop=1;jettySize=auto;html=1;endArrow=halfCircle;endFill=0;endSize=6;strokeWidth=1;sketch=0;exitX=0.25;exitY=1;exitDx=0;exitDy=0;" edge="1" parent="1" source="pMmxNRYlZ2RB8qyUUOUR-15" target="pMmxNRYlZ2RB8qyUUOUR-7">
          <mxGeometry relative="1" as="geometry">
            <mxPoint x="300" y="180" as="sourcePoint" />
            <mxPoint x="300" y="145" as="targetPoint" />
          </mxGeometry>
        </mxCell>
        <mxCell id="pMmxNRYlZ2RB8qyUUOUR-18" value="航班信息系统" style="html=1;dropTarget=0;whiteSpace=wrap;" vertex="1" parent="1">
          <mxGeometry x="368" y="170" width="180" height="90" as="geometry" />
        </mxCell>
        <mxCell id="pMmxNRYlZ2RB8qyUUOUR-19" value="" style="shape=module;jettyWidth=8;jettyHeight=4;" vertex="1" parent="pMmxNRYlZ2RB8qyUUOUR-18">
          <mxGeometry x="1" width="20" height="20" relative="1" as="geometry">
            <mxPoint x="-27" y="7" as="offset" />
          </mxGeometry>
        </mxCell>
        <mxCell id="pMmxNRYlZ2RB8qyUUOUR-20" value="查询航班信息" style="html=1;rounded=0;" vertex="1" parent="1">
          <mxGeometry x="368" y="230" width="92" height="30" as="geometry" />
        </mxCell>
        <mxCell id="pMmxNRYlZ2RB8qyUUOUR-21" value="" style="endArrow=none;html=1;rounded=0;align=center;verticalAlign=top;endFill=0;labelBackgroundColor=none;endSize=2;" edge="1" source="pMmxNRYlZ2RB8qyUUOUR-20" target="pMmxNRYlZ2RB8qyUUOUR-22" parent="1">
          <mxGeometry relative="1" as="geometry" />
        </mxCell>
        <mxCell id="pMmxNRYlZ2RB8qyUUOUR-22" value="" style="ellipse;html=1;fontSize=11;align=center;fillColor=none;points=[];aspect=fixed;resizable=0;verticalAlign=bottom;labelPosition=center;verticalLabelPosition=top;flipH=1;" vertex="1" parent="1">
          <mxGeometry x="340" y="241" width="8" height="8" as="geometry" />
        </mxCell>
        <mxCell id="pMmxNRYlZ2RB8qyUUOUR-23" value="" style="rounded=0;orthogonalLoop=1;jettySize=auto;html=1;endArrow=halfCircle;endFill=0;endSize=6;strokeWidth=1;sketch=0;exitX=0.25;exitY=1;exitDx=0;exitDy=0;" edge="1" parent="1">
          <mxGeometry relative="1" as="geometry">
            <mxPoint x="344.5" y="160" as="sourcePoint" />
            <mxPoint x="343.5" y="241" as="targetPoint" />
          </mxGeometry>
        </mxCell>
        <mxCell id="pMmxNRYlZ2RB8qyUUOUR-24" value="" style="rounded=0;orthogonalLoop=1;jettySize=auto;html=1;endArrow=halfCircle;endFill=0;endSize=6;strokeWidth=1;sketch=0;exitX=0.25;exitY=0;exitDx=0;exitDy=0;" edge="1" parent="1">
          <mxGeometry relative="1" as="geometry">
            <mxPoint x="343.5" y="300" as="sourcePoint" />
            <mxPoint x="343.5" y="250" as="targetPoint" />
          </mxGeometry>
        </mxCell>
        <mxCell id="pMmxNRYlZ2RB8qyUUOUR-26" value="" style="rounded=0;orthogonalLoop=1;jettySize=auto;html=1;endArrow=none;endFill=0;sketch=0;sourcePerimeterSpacing=0;targetPerimeterSpacing=0;" edge="1" target="pMmxNRYlZ2RB8qyUUOUR-28" parent="1">
          <mxGeometry relative="1" as="geometry">
            <mxPoint x="410" y="335" as="sourcePoint" />
          </mxGeometry>
        </mxCell>
        <mxCell id="pMmxNRYlZ2RB8qyUUOUR-27" value="" style="rounded=0;orthogonalLoop=1;jettySize=auto;html=1;endArrow=halfCircle;endFill=0;entryX=0.5;entryY=0.5;endSize=6;strokeWidth=1;sketch=0;exitX=0.596;exitY=1.022;exitDx=0;exitDy=0;exitPerimeter=0;" edge="1" target="pMmxNRYlZ2RB8qyUUOUR-28" parent="1" source="pMmxNRYlZ2RB8qyUUOUR-18">
          <mxGeometry relative="1" as="geometry">
            <mxPoint x="510" y="335" as="sourcePoint" />
          </mxGeometry>
        </mxCell>
        <mxCell id="pMmxNRYlZ2RB8qyUUOUR-28" value="" style="ellipse;whiteSpace=wrap;html=1;align=center;aspect=fixed;resizable=0;points=[];outlineConnect=0;sketch=0;" vertex="1" parent="1">
          <mxGeometry x="470" y="330" width="10" height="10" as="geometry" />
        </mxCell>
        <mxCell id="pMmxNRYlZ2RB8qyUUOUR-30" value="订票" style="text;html=1;align=center;verticalAlign=middle;resizable=0;points=[];autosize=1;strokeColor=none;fillColor=none;" vertex="1" parent="1">
          <mxGeometry x="450" y="340" width="50" height="30" as="geometry" />
        </mxCell>
        <mxCell id="pMmxNRYlZ2RB8qyUUOUR-37" value="" style="rounded=0;orthogonalLoop=1;jettySize=auto;html=1;endArrow=none;endFill=0;sketch=0;sourcePerimeterSpacing=0;targetPerimeterSpacing=0;exitX=0.622;exitY=-0.009;exitDx=0;exitDy=0;exitPerimeter=0;" edge="1" target="pMmxNRYlZ2RB8qyUUOUR-39" parent="1" source="pMmxNRYlZ2RB8qyUUOUR-18">
          <mxGeometry relative="1" as="geometry">
            <mxPoint x="460" y="115" as="sourcePoint" />
          </mxGeometry>
        </mxCell>
        <mxCell id="pMmxNRYlZ2RB8qyUUOUR-38" value="" style="rounded=0;orthogonalLoop=1;jettySize=auto;html=1;endArrow=halfCircle;endFill=0;entryX=0.5;entryY=0.5;endSize=6;strokeWidth=1;sketch=0;exitX=1;exitY=0.5;exitDx=0;exitDy=0;" edge="1" target="pMmxNRYlZ2RB8qyUUOUR-39" parent="1" source="pMmxNRYlZ2RB8qyUUOUR-15">
          <mxGeometry relative="1" as="geometry">
            <mxPoint x="500" y="115" as="sourcePoint" />
          </mxGeometry>
        </mxCell>
        <mxCell id="pMmxNRYlZ2RB8qyUUOUR-39" value="" style="ellipse;whiteSpace=wrap;html=1;align=center;aspect=fixed;resizable=0;points=[];outlineConnect=0;sketch=0;" vertex="1" parent="1">
          <mxGeometry x="475" y="110" width="10" height="10" as="geometry" />
        </mxCell>
        <mxCell id="pMmxNRYlZ2RB8qyUUOUR-40" value="管理航班" style="text;html=1;align=center;verticalAlign=middle;resizable=0;points=[];autosize=1;strokeColor=none;fillColor=none;" vertex="1" parent="1">
          <mxGeometry x="445" y="85" width="70" height="30" as="geometry" />
        </mxCell>
      </root>
    </mxGraphModel>
  </diagram>
</mxfile>
